HIERARCHY
ROOT Hips
{
	OFFSET -3.958830 18.904000 13.208200
	CHANNELS 6 Xposition Yposition Zposition Zrotation Yrotation Xrotation 
	JOINT LHipJoint
	{
		OFFSET 0.000000 0.000000 0.000000
		CHANNELS 3 Zrotation Yrotation Xrotation
		JOINT LeftUpLeg
		{
			OFFSET 1.800000 -1.400000 0.085000
			CHANNELS 3 Zrotation Yrotation Xrotation
			JOINT LeftLeg
			{
				OFFSET 2.215000 -6.000000 0.000000
				CHANNELS 3 Zrotation Yrotation Xrotation
				JOINT LeftFoot
				{
					OFFSET 2.500000 -6.900000 0.000000
					CHANNELS 3 Zrotation Yrotation Xrotation
					JOINT LeftToeBase
					{
						OFFSET 0.200000 -0.500000 1.950000
						CHANNELS 3 Zrotation Yrotation Xrotation
						End Site
						{
							OFFSET 0.000000 0.000000 0.000000
						}
					}
				}
			}
		}
	}
	JOINT RHipJoint
	{
		OFFSET 0.000000 0.000000 0.000000
		CHANNELS 3 Zrotation Yrotation Xrotation
		JOINT RightUpLeg
		{
			OFFSET -1.800000 -1.400000 0.085000
			CHANNELS 3 Zrotation Yrotation Xrotation
			JOINT RightLeg
			{
				OFFSET -2.215000 -6.000000 0.000000
				CHANNELS 3 Zrotation Yrotation Xrotation
				JOINT RightFoot
				{
					OFFSET -2.500000 -6.900000 0.000000
					CHANNELS 3 Zrotation Yrotation Xrotation
					JOINT RightToeBase
					{
						OFFSET -0.200000 -0.500000 1.950000
						CHANNELS 3 Zrotation Yrotation Xrotation
						End Site
						{
							OFFSET 0.000000 0.000000 0.000000
						}
					}
				}
			}
		}
	}
	JOINT LowerBack
	{
		OFFSET 0.000000 0.000000 0.000000
		CHANNELS 3 Zrotation Yrotation Xrotation
		JOINT Spine
		{
			OFFSET -0.087000 1.940000 -0.288900
			CHANNELS 3 Zrotation Yrotation Xrotation
			JOINT Spine1
			{
				OFFSET 0.000000 1.950000 0.060000
				CHANNELS 3 Zrotation Yrotation Xrotation
				JOINT Neck
				{
					OFFSET 0.000000 0.000000 0.000000
					CHANNELS 3 Zrotation Yrotation Xrotation
					JOINT Neck1
					{
						OFFSET 0.000000 1.600000 0.340000
						CHANNELS 3 Zrotation Yrotation Xrotation
						JOINT Head
						{
							OFFSET 0.000000 1.667000 -0.240000
							CHANNELS 3 Zrotation Yrotation Xrotation
							End Site
							{
								OFFSET 0.000000 0.000000 0.000000
							}
						}
					}
				}
				JOINT LeftShoulder
				{
					OFFSET 0.000000 0.000000 0.000000
					CHANNELS 3 Zrotation Yrotation Xrotation
					JOINT LeftArm
					{
						OFFSET 2.700000 1.550000 -0.730000
						CHANNELS 3 Zrotation Yrotation Xrotation
						JOINT LeftForeArm
						{
							OFFSET 5.450000 0.000000 0.000000
							CHANNELS 3 Zrotation Yrotation Xrotation
							JOINT LeftHand
							{
								OFFSET 3.450000 0.000000 0.000000
								CHANNELS 3 Zrotation Yrotation Xrotation
								JOINT LeftHandIndex1
								{
									OFFSET 0.750000 0.000000 0.000000
									CHANNELS 3 Zrotation Yrotation Xrotation
									End Site
									{
										OFFSET 0.000000 0.000000 0.000000
									}
								}
							}
						}
					}
				}
				JOINT RightShoulder
				{
					OFFSET 0.000000 0.000000 0.000000
					CHANNELS 3 Zrotation Yrotation Xrotation
					JOINT RightArm
					{
						OFFSET -2.700000 1.550000 -0.730000
						CHANNELS 3 Zrotation Yrotation Xrotation
						JOINT RightForeArm
						{
							OFFSET -5.450000 0.000000 0.000000
							CHANNELS 3 Zrotation Yrotation Xrotation
							JOINT RightHand
							{
								OFFSET -3.450000 0.000000 0.000000
								CHANNELS 3 Zrotation Yrotation Xrotation
								JOINT RightHandIndex1
								{
									OFFSET -0.750000 0.000000 0.000000
									CHANNELS 3 Zrotation Yrotation Xrotation
									End Site
									{
										OFFSET 0.000000 0.000000 0.000000
									}
								}
							}
						}
					}
				}
			}
		}
	}
}
MOTION
Frames: 10
Frame Time: 0.016667
0.400780 16.854610 -1.162830 -2.111492 -5.079647 3.804248 -14.847877 13.237074 2.403877 8.629486 -1.152192 -14.178684 -5.867746 6.935010 18.377384 -0.586223 5.098663 3.096722 -0.180460 -0.655390 -0.035620 18.525973 -11.316991 2.614322 -10.166222 0.820810 -10.817850 10.138480 -6.192589 11.574732 0.158433 -4.361421 3.148977 -0.081210 0.884130 0.215690 -4.360040 -0.690360 -6.514061 13.944157 1.872889 2.421323 -5.595079 2.090979 8.289119 2.526938 -3.672720 -6.883041 -7.001252 13.344392 33.069077 -6.085190 16.181450 10.662700 -10.403028 -0.118488 2.578819 -35.689582 -12.123337 -1.364104 54.828978 -51.879298 -26.128653 -4.310898 2.542166 0.085990 0.785860 -0.675030 0.094310 5.112529 2.407508 1.551532 36.463044 18.053411 -2.284840 -23.977290 35.695004 -6.870138 1.720142 -1.596737 -0.567030 0.218550 0.326870 -0.299560 
0.400520 16.854310 -1.162840 -2.112438 -5.094174 3.803606 -14.848003 13.237426 2.403570 8.633243 -1.152152 -14.191459 -5.865071 6.941470 18.411423 -0.586340 5.102693 3.095131 -0.180750 -0.655720 -0.036210 18.525862 -11.316757 2.614562 -10.165057 0.821465 -10.815199 10.137922 -6.191438 11.568642 0.158612 -4.361633 3.149024 -0.081070 0.884730 0.215910 -4.359518 -0.691001 -6.513900 13.939700 1.880748 2.421691 -5.586500 2.098497 8.291028 2.519653 -3.675815 -6.884592 -7.008846 13.344012 33.062490 -6.084640 16.178450 10.664450 -10.370767 -0.111639 2.578175 -35.671752 -12.147779 -1.346440 54.925830 -51.830580 -26.155969 -4.311944 2.542000 0.085990 0.786330 -0.675350 0.094460 5.094814 2.404686 1.552740 36.466990 18.053704 -2.282678 -23.983792 35.695858 -6.871476 1.719597 -1.596961 -0.567380 0.218760 0.327280 -0.299530 
0.400110 16.853820 -1.162770 -2.111650 -5.119008 3.802460 -14.848232 13.237710 2.402959 8.635065 -1.152694 -14.215386 -5.860131 6.952829 18.472421 -0.586499 5.109318 3.092440 -0.181140 -0.656020 -0.036780 18.525734 -11.315941 2.615223 -10.169351 0.821805 -10.806326 10.143328 -6.189617 11.549164 0.158857 -4.362329 3.148846 -0.080760 0.885660 0.215890 -4.358751 -0.692331 -6.513519 13.931928 1.893158 2.421154 -5.572437 2.109811 8.292832 2.503517 -3.684481 -6.884557 -7.027960 13.347049 33.046497 -6.083010 16.175220 10.662010 -10.304582 -0.089710 2.575033 -35.638835 -12.195704 -1.309687 55.100363 -51.740237 -26.201955 -4.313790 2.541823 0.085750 0.786950 -0.675980 0.094450 5.060311 2.391865 1.551185 36.483697 18.061905 -2.274001 -23.994461 35.704850 -6.875083 1.718894 -1.597255 -0.567970 0.219340 0.327940 -0.299470 
0.399590 16.853250 -1.162760 -2.114075 -5.150795 3.800656 -14.848439 13.237961 2.402065 8.639896 -1.153674 -14.249708 -5.853131 6.968272 18.555545 -0.586229 5.117969 3.089133 -0.181090 -0.655810 -0.037020 18.525683 -11.314798 2.616209 -10.173542 0.822243 -10.794262 10.154851 -6.188106 11.525430 0.158977 -4.363520 3.148830 -0.079990 0.886640 0.215670 -4.358071 -0.693965 -6.513046 13.926307 1.909381 2.420079 -5.551108 2.123802 8.297385 2.480004 -3.695445 -6.885509 -7.052638 13.350528 33.023044 -6.079440 16.173040 10.660560 -10.213057 -0.063934 2.571796 -35.583306 -12.263152 -1.259440 55.337110 -51.617102 -26.263118 -4.315891 2.541676 0.085250 0.787700 -0.676650 0.094850 5.014984 2.377050 1.550295 36.503664 18.068477 -2.265578 -24.018221 35.727413 -6.884871 1.717895 -1.597944 -0.568630 0.220150 0.328000 -0.299390 
0.398860 16.852560 -1.162730 -2.117919 -5.193126 3.797937 -14.848958 13.238445 2.400901 8.648082 -1.154189 -14.293102 -5.844631 6.989049 18.663645 -0.586078 5.129119 3.084603 -0.181140 -0.655320 -0.037000 18.525420 -11.313219 2.617453 -10.173518 0.822159 -10.775301 10.165273 -6.184670 11.492407 0.159264 -4.364685 3.148787 -0.078920 0.887370 0.215140 -4.356495 -0.696460 -6.512428 13.913393 1.931533 2.417944 -5.512852 2.141857 8.307069 2.449903 -3.706669 -6.887611 -7.079055 13.351961 32.993857 -6.090390 16.180420 10.650610 -10.084241 -0.030944 2.570332 -35.520657 -12.349287 -1.195192 55.602524 -51.464995 -26.324090 -4.318528 2.541664 0.084590 0.788650 -0.677460 0.094740 4.946634 2.357463 1.547550 36.528490 18.087180 -2.248157 -24.033779 35.735837 -6.890799 1.717043 -1.598865 -0.569500 0.220920 0.328080 -0.299570 
0.398230 16.851880 -1.162820 -2.126172 -5.242126 3.795345 -14.849384 13.239226 2.399646 8.656304 -1.154993 -14.344031 -5.830097 7.010352 18.782919 -0.585908 5.140803 3.079807 -0.181750 -0.655250 -0.037480 18.525202 -11.311586 2.619017 -10.170532 0.822702 -10.757130 10.177399 -6.181071 11.458517 0.159987 -4.365917 3.148933 -0.077900 0.888350 0.214340 -4.355039 -0.699286 -6.512023 13.905329 1.956552 2.419083 -5.463736 2.161954 8.313707 2.414186 -3.720937 -6.890797 -7.112008 13.352354 32.958809 -6.105400 16.189540 10.649280 -9.933258 0.008018 2.570118 -35.445334 -12.441590 -1.122003 55.880127 -51.308159 -26.386505 -4.321587 2.541816 0.083500 0.789920 -0.678690 0.094500 4.867153 2.335600 1.543674 36.543874 18.110478 -2.224701 -24.035849 35.736018 -6.889877 1.716332 -1.599793 -0.570610 0.221750 0.328420 -0.299730 
0.397660 16.851340 -1.163000 -2.138805 -5.298965 3.789420 -14.849487 13.239821 2.398068 8.667317 -1.155432 -14.398576 -5.811593 7.033064 18.913048 -0.585356 5.153038 3.074666 -0.182030 -0.654910 -0.037470 18.525255 -11.310303 2.620966 -10.168409 0.823451 -10.736156 10.194082 -6.178299 11.423668 0.160295 -4.367487 3.148813 -0.076880 0.888780 0.213490 -4.354358 -0.700855 -6.511771 13.904087 1.985689 2.423374 -5.411387 2.184961 8.319069 2.377051 -3.731979 -6.891519 -7.139037 13.351296 32.929625 -6.126910 16.207880 10.645530 -9.780093 0.047228 2.566141 -35.330701 -12.537377 -1.045123 56.154939 -51.152797 -26.442478 -4.324589 2.542732 0.082240 0.790920 -0.679790 0.094210 4.787568 2.310903 1.538620 36.550829 18.135729 -2.197444 -24.024312 35.733783 -6.883589 1.715726 -1.600935 -0.571390 0.222380 0.328610 -0.300150 
0.397080 16.850810 -1.163260 -2.153477 -5.357437 3.780222 -14.849516 13.240741 2.396410 8.678431 -1.155856 -14.453327 -5.788244 7.055942 19.051180 -0.584597 5.165458 3.069265 -0.181940 -0.654460 -0.036460 18.525242 -11.309216 2.623320 -10.167019 0.823777 -10.710127 10.214662 -6.176611 11.387604 0.160257 -4.369416 3.148298 -0.076060 0.888570 0.212780 -4.353634 -0.702455 -6.512240 13.903720 2.016945 2.434384 -5.356385 2.209143 8.321152 2.340570 -3.738282 -6.893901 -7.157392 13.346533 32.904847 -6.153020 16.232630 10.637960 -9.632723 0.078540 2.561133 -35.171554 -12.624133 -0.972539 56.441427 -51.001901 -26.501796 -4.327054 2.543656 0.081350 0.791540 -0.680430 0.093650 4.712634 2.291114 1.537668 36.556740 18.150038 -2.178502 -24.038711 35.749359 -6.887602 1.715262 -1.602064 -0.571940 0.222520 0.328320 -0.300790 
0.396560 16.850230 -1.163760 -2.170835 -5.418514 3.770963 -14.849347 13.241454 2.394551 8.690127 -1.157022 -14.514518 -5.759930 7.079548 19.202082 -0.583672 5.178721 3.063625 -0.181270 -0.653610 -0.035000 18.525399 -11.308175 2.626142 -10.166266 0.825267 -10.687220 10.243530 -6.176514 11.351895 0.160017 -4.371983 3.147576 -0.075050 0.888450 0.212420 -4.353435 -0.703255 -6.512961 13.906775 2.050910 2.448686 -5.298032 2.234440 8.319722 2.301235 -3.741485 -6.893713 -7.169071 13.343866 32.879774 -6.172140 16.258910 10.631990 -9.480877 0.112005 2.553129 -34.984660 -12.711974 -0.897406 56.692656 -50.860886 -26.542179 -4.329381 2.545301 0.080530 0.792270 -0.680930 0.093420 4.638524 2.266745 1.534678 36.559222 18.165391 -2.158245 -24.060444 35.770691 -6.894590 1.714740 -1.603586 -0.572350 0.222450 0.327540 -0.301350 
0.396150 16.849520 -1.164350 -2.192275 -5.474986 3.762355 -14.848844 13.241810 2.392541 8.703322 -1.159306 -14.582259 -5.727233 7.102730 19.360228 -0.583065 5.192771 3.057937 -0.180420 -0.652700 -0.033470 18.525958 -11.307582 2.628849 -10.161009 0.826962 -10.665249 10.271743 -6.177486 11.322225 0.159489 -4.374989 3.146696 -0.073800 0.888720 0.212400 -4.354367 -0.702773 -6.513359 13.920158 2.081779 2.461693 -5.243260 2.254747 8.318203 2.260342 -3.741003 -6.889517 -7.171598 13.344968 32.849470 -6.194090 16.293130 10.621590 -9.324379 0.148308 2.542507 -34.774855 -12.797356 -0.821800 56.914927 -50.726286 -26.566712 -4.332066 2.547367 0.079840 0.793330 -0.681370 0.093600 4.562397 2.234155 1.527434 36.578309 18.191513 -2.135162 -24.107599 35.795635 -6.911726 1.713744 -1.605382 -0.572960 0.222630 0.326670 -0.301960 
